<svg id="Artwork" xmlns="http://www.w3.org/2000/svg" viewBox="0 0 325.06 129.71"><defs><style>.cls-1{fill:#060809;}.cls-2{fill:#0fa0ea;}</style></defs><title>Affirm_Logo_Full</title><path class="cls-1" d="M83.87,130.33c-8.81,0-19,4.15-24.47,8.54l5,10.59c4.42-4,11.56-7.5,18-7.5,6.12,0,9.5,2,9.5,6.17,0,2.77-2.24,4.18-6.47,4.73-15.82,2-28.23,6.42-28.23,18.61,0,9.66,6.89,15.51,17.64,15.51a20.76,20.76,0,0,0,17.74-9.89v8.31h14.3V150.56C106.91,136.17,96.91,130.33,83.87,130.33Zm-5.32,45.48c-4,0-6-2-6-5.24,0-6,6.76-8.11,19.1-9.42C91.62,169.23,86.16,175.81,78.55,175.81Z" transform="translate(-57.23 -57.27)"/><path class="cls-1" d="M227.44,131.9v53.5h15.3V159.62c0-12.25,7.42-15.84,12.59-15.84a11.65,11.65,0,0,1,6.54,1.93l2.79-14.14a17.27,17.27,0,0,0-6.86-1.24c-7.86,0-12.81,3.48-16.07,10.57v-9Z" transform="translate(-57.23 -57.27)"/><path class="cls-1" d="M335.61,130.33a21.22,21.22,0,0,0-17.29,9.39c-2.92-5.95-9.12-9.39-16.54-9.39A17.74,17.74,0,0,0,285.5,140v-8.1H270.76v53.5h15.31V157.87c0-9.89,5.17-14.64,10-14.64,4.37,0,8.39,2.84,8.39,10.14v32h15.29V157.87c0-10,5.06-14.64,10.12-14.64,4,0,8.31,3,8.31,10V185.4h15.29v-37C353.48,136.4,345.39,130.33,335.61,130.33Z" transform="translate(-57.23 -57.27)"/><path class="cls-1" d="M190.19,131.9H176.33v-5.44c0-7.08,4-9.1,7.52-9.1a15.25,15.25,0,0,1,6.85,1.71l4.72-10.79s-4.78-3.13-13.48-3.13c-9.78,0-20.91,5.51-20.91,22.82v3.93h-23.2v-5.44c0-7.08,4-9.1,7.52-9.1a14.53,14.53,0,0,1,6.85,1.71l4.72-10.79c-2.82-1.65-7.34-3.13-13.48-3.13-9.78,0-20.91,5.51-20.91,22.82v3.93h-8.88v11.8h8.88v41.7h15.3V143.7H161v41.7h15.3V143.7h13.86Z" transform="translate(-57.23 -57.27)"/><rect class="cls-1" x="142.08" y="74.63" width="15.28" height="53.5"/><path class="cls-2" d="M288.44,57.27c-41.3,0-78.11,28.67-88.56,65.54h15c8.73-27.45,38.35-51.55,73.59-51.55,42.84,0,79.87,32.61,79.87,83.39A104.28,104.28,0,0,1,364,185.4h14.53l.14-.5a123,123,0,0,0,3.59-30.25C382.29,98,341,57.27,288.44,57.27Z" transform="translate(-57.23 -57.27)"/></svg>